[B]Mahabharat Aur Barbareek (2013)[/B]



 
http://nimga.com/m/9FZwN.jpg




[B]INFO[/B]

[CODE]Rip Information

Code  Code:

Format                                   : AVI
Format/Info                              : Audio Video Interleave
File size                                : 704 MiB
Duration                                 : 2h 17mn
Overall bit rate                         : 718 Kbps

Video

Code  Code:

Format                                   : MPEG-4 Visual
Format profile                           : Advanced Simple@L5
Format settings, BVOP                    : 3
Format settings, QPel                    : No
Format settings, GMC                     : No warppoints
Format settings, Matrix                  : Default (MPEG)
Codec ID                                 : XVID
Codec ID/Hint                            : XviD
Duration                                 : 2h 17mn
Bit rate                                 : 582 Kbps
Width                                    : 688 pixels
Height                                   : 288 pixels
Display aspect ratio                     : 2.40:1
Frame rate                               : 25.000 fps
Color space                              : YUV
Chroma subsampling                       : 4:2:0
Bit depth                                : 8 bits
Scan type                                : Progressive
Compression mode                         : Lossy
Bits/(Pixel*Frame)                       : 0.117
Stream size                              : 570 MiB (81%)
Writing library                          : XviD 1.2.1 (UTC 2008-12

Audio

Code  Code:

Format                                   : AC-3
Format/Info                              : Audio Coding 3
Mode extension                           : CM (complete main)
Format settings, Endianness              : Big
Codec ID                                 : 2000
Duration                                 : 2h 17mn
Bit rate mode                            : Constant
Bit rate                                 : 128 Kbps
Channel(s)                               : 2 channels
Channel positions                        : Front: L R
Sampling rate                            : 48.0 KHz
Bit depth                                : 16 bits
Compression mode                         : Lossy
Stream size                              : 125 MiB (18%)
Alignment                                : Aligned on interleaves
Interleave, duration                     : 64 ms (1.60 video frames)
Title                                    : K@rtik

[/CODE]




[B]SCREEN SHOTS[/B]
 
http://nimga.com/m/w9Eo9.png
 
http://nimga.com/m/nTLpv.png
 
http://nimga.com/m/7g57k.png
 
http://nimga.com/m/p2qNl.png
 
http://nimga.com/m/Nwknd.png
 
http://nimga.com/m/GL4Pi.png
 
http://nimga.com/m/IWF8H.png
 
http://nimga.com/m/Ze6ea.png
 
http://nimga.com/m/B8lwk.png
 
http://nimga.com/m/2heOa.png
 
http://nimga.com/m/N6dAC.png
 
http://nimga.com/m/D9tPz.png
 
http://nimga.com/m/fcfeB.png